<svg width="32" height="32" viewBox="0 0 32 32" fill="none" xmlns="http://www.w3.org/2000/svg">
<path fill-rule="evenodd" clip-rule="evenodd" d="M19 16C22.3137 16 25 13.3137 25 10C25 6.68629 22.3137 4 19 4C15.6863 4 13 6.68629 13 10C13 13.3137 15.6863 16 19 16ZM19 17.7143C15.461 17.7143 12.2535 18.4346 9.625 21.1429C7.75367 23.071 7 28 7 28H31C31 28 30.2463 23.071 28.375 21.1429C25.7465 18.4346 22.539 17.7143 19 17.7143ZM7.57143 14.7142H11.2857V17.2857H7.57143V21.2857H5V17.2857H1V14.7142H5V11H7.57143V14.7142Z" fill="white"/>
</svg>
