<svg width="29" height="24" viewBox="0 0 29 24" fill="none" xmlns="http://www.w3.org/2000/svg">
<path d="M16.333 0C9.70634 0 4.33301 5.37333 4.33301 12H0.333008L5.51967 17.1867L5.61301 17.3733L10.9997 12H6.99967C6.99967 6.84 11.173 2.66667 16.333 2.66667C21.493 2.66667 25.6663 6.84 25.6663 12C25.6663 17.16 21.493 21.3333 16.333 21.3333C13.7597 21.3333 11.4263 20.28 9.74634 18.5867L7.85301 20.48C10.0263 22.6533 13.013 24 16.333 24C22.9597 24 28.333 18.6267 28.333 12C28.333 5.37333 22.9597 0 16.333 0ZM14.9997 6.66667V13.3333L20.7063 16.72L21.6663 15.1067L16.9997 12.3333V6.66667H14.9997Z" fill="white"/>
</svg>
