<svg width="18" height="18" viewBox="0 0 18 18" fill="none" xmlns="http://www.w3.org/2000/svg">
<path d="M8.1 12.6C8.1 12.1029 8.50294 11.7 9 11.7C9.49706 11.7 9.9 12.1029 9.9 12.6C9.9 13.0971 9.49706 13.5 9 13.5C8.50294 13.5 8.1 13.0971 8.1 12.6ZM8.1 5.4C8.1 4.90295 8.50294 4.5 9 4.5C9.49706 4.5 9.9 4.90294 9.9 5.4V9C9.9 9.49706 9.49706 9.9 9 9.9C8.50294 9.9 8.1 9.49706 8.1 9V5.4ZM8.991 0C4.023 0 0 4.032 0 9C0 13.968 4.023 18 8.991 18C13.968 18 18 13.968 18 9C18 4.032 13.968 0 8.991 0ZM9 16.2C5.022 16.2 1.8 12.978 1.8 9C1.8 5.022 5.022 1.8 9 1.8C12.978 1.8 16.2 5.022 16.2 9C16.2 12.978 12.978 16.2 9 16.2Z" fill="#E87C7B"/>
</svg>
