<svg width="24" height="24" viewBox="0 0 24 24" fill="none" xmlns="http://www.w3.org/2000/svg">
<path fill-rule="evenodd" clip-rule="evenodd" d="M1.05861 0.352384C0.863349 0.157116 0.546776 0.157116 0.35152 0.352384C0.156264 0.547652 0.156264 0.864244 0.35152 1.05951L11.2914 12.0001L0.351543 22.9392C0.156275 23.1345 0.156254 23.4511 0.351497 23.6463C0.54674 23.8416 0.863313 23.8416 1.05858 23.6464L11.9985 12.7072L22.9384 23.6478C23.1336 23.843 23.4502 23.843 23.6454 23.6478C23.8407 23.4525 23.8407 23.1359 23.6454 22.9406L12.7056 12.0001L23.6469 1.05965C23.8422 0.864395 23.8422 0.547803 23.6469 0.352522C23.4517 0.157241 23.1351 0.15722 22.9399 0.352474L11.9986 11.293L1.05861 0.352384Z" fill="#7E7E7E"/>
</svg>
