<svg width="150" height="150" viewBox="0 0 150 166" fill="none" style="background-color: transparent;" xmlns="http://www.w3.org/2000/svg">
<path fill-rule="evenodd" clip-rule="evenodd" d="M75 15H25C19.4772 15 15 19.4772 15 25C15 30.5228 19.4772 35 25 35H75C80.5229 35 85 30.5228 85 25C85 19.4772 80.5229 15 75 15ZM25 0C11.1929 0 0 11.1929 0 25C0 38.8071 11.1929 50 25 50H72.2965C73.1874 50 73.6335 51.0771 73.0036 51.7071L41.6777 83.033C31.9146 92.7961 31.9146 108.625 41.6777 118.388C45.1284 121.839 49.3368 124.07 53.7674 125.082C54.5157 125.252 54.8669 126.157 54.4301 126.788C51.6366 130.823 50 135.72 50 141C50 154.807 61.1929 166 75 166H125C138.807 166 150 154.807 150 141C150 127.193 138.807 116 125 116H81.8356C80.9447 116 80.4985 114.923 81.1285 114.293L112.388 83.033C122.151 73.2699 122.151 57.4408 112.388 47.6777C108.032 43.3211 102.467 40.9085 96.7729 40.44C95.9434 40.3718 95.4637 39.3887 95.9201 38.6927C98.4997 34.7596 100 30.055 100 25C100 11.1929 88.8071 0 75 0H25ZM75 131C69.4772 131 65 135.477 65 141C65 146.523 69.4772 151 75 151H125C130.523 151 135 146.523 135 141C135 135.477 130.523 131 125 131H75ZM52.2843 93.6396L87.6396 58.2843C91.5449 54.379 97.8765 54.379 101.782 58.2843C105.687 62.1895 105.687 68.5212 101.782 72.4264L66.4264 107.782C62.5212 111.687 56.1895 111.687 52.2843 107.782C48.379 103.877 48.379 97.5449 52.2843 93.6396Z" fill="white"/>
</svg>
