<svg width="20" height="22" viewBox="0 0 20 22" fill="none" xmlns="http://www.w3.org/2000/svg">
<path fill-rule="evenodd" clip-rule="evenodd" d="M15.8768 9.68535C15.8768 13.4267 12.8438 16.4597 9.10247 16.4597C5.3611 16.4597 2.32812 13.4267 2.32812 9.68535C2.32812 5.94399 5.3611 2.91101 9.10247 2.91101C12.8438 2.91101 15.8768 5.94399 15.8768 9.68535ZM14.0801 16.9121C12.6658 17.8881 10.9509 18.4597 9.10247 18.4597C4.25653 18.4597 0.328125 14.5313 0.328125 9.68535C0.328125 4.83942 4.25653 0.911011 9.10247 0.911011C13.9484 0.911011 17.8768 4.83942 17.8768 9.68535C17.8768 11.961 17.0105 14.0342 15.5898 15.5934L19.3783 19.3819C19.7688 19.7724 19.7688 20.4056 19.3783 20.7961C18.9878 21.1866 18.3546 21.1866 17.9641 20.7961L14.0801 16.9121Z" fill="#999999"/>
</svg>
