<svg width="25" height="24" viewBox="0 0 25 24" fill="none" xmlns="http://www.w3.org/2000/svg">
<path fill-rule="evenodd" clip-rule="evenodd" d="M12.5 4C12.0091 4 11.6111 4.39797 11.6111 4.88889V11.1111H5.38889C4.89797 11.1111 4.5 11.5091 4.5 12C4.5 12.4909 4.89797 12.8889 5.38889 12.8889H11.6111V19.1111C11.6111 19.602 12.0091 20 12.5 20C12.9909 20 13.3889 19.602 13.3889 19.1111V12.8889H19.6111C20.102 12.8889 20.5 12.4909 20.5 12C20.5 11.5091 20.102 11.1111 19.6111 11.1111H13.3889V4.88889C13.3889 4.39797 12.9909 4 12.5 4Z" fill="white"/>
</svg>
