<svg width="32" height="32" viewBox="0 0 32 32" fill="none" xmlns="http://www.w3.org/2000/svg">
<g clip-path="url(#clip0_150_1168)">
<path d="M14.667 23.0001C14.667 23.5524 15.1147 24.0001 15.667 24.0001H16.3337C16.8859 24.0001 17.3337 23.5524 17.3337 23.0001V22.3334C17.3337 21.7811 16.8859 21.3334 16.3337 21.3334H15.667C15.1147 21.3334 14.667 21.7811 14.667 22.3334V23.0001ZM16.0003 2.66675C8.64033 2.66675 2.66699 8.64008 2.66699 16.0001C2.66699 23.3601 8.64033 29.3334 16.0003 29.3334C23.3603 29.3334 29.3337 23.3601 29.3337 16.0001C29.3337 8.64008 23.3603 2.66675 16.0003 2.66675ZM16.0003 26.6667C10.1203 26.6667 5.33366 21.8801 5.33366 16.0001C5.33366 10.1201 10.1203 5.33341 16.0003 5.33341C21.8803 5.33341 26.667 10.1201 26.667 16.0001C26.667 21.8801 21.8803 26.6667 16.0003 26.6667ZM16.0003 8.00008C13.3936 8.00008 11.2251 9.86787 10.7595 12.3388C10.6572 12.8816 11.1147 13.3334 11.667 13.3334H12.3337C12.8859 13.3334 13.3162 12.8701 13.5199 12.3568C13.9117 11.3695 14.8779 10.6667 16.0003 10.6667C17.467 10.6667 18.667 11.8667 18.667 13.3334C18.667 15.776 15.3109 15.7016 14.747 19.0021C14.6539 19.5465 15.1147 20.0001 15.667 20.0001H16.3337C16.8859 20.0001 17.3133 19.5388 17.4954 19.0175C18.2438 16.8754 21.3337 16.2631 21.3337 13.3334C21.3337 10.3867 18.947 8.00008 16.0003 8.00008Z" fill="white"/>
</g>
<defs>
<clipPath id="clip0_150_1168">
<rect width="32" height="32" fill="white"/>
</clipPath>
</defs>
</svg>
